# xmcd CD database file
#
# Track frame offsets:
#	183
#	17670
#	38128
#	66083
#	87093
#	99493
#	117670
#	142095
#	163278
#	191530
#	209175
#	231188
#
# Disc length: 3381 seconds
#
# Revision: 0
# Processed by: cddbd v1.5.2PL0 Copyright (c) Steve Scherf et al.
# Submitted via: CDex 1.70beta2
#
DISCID=b00d330c
DTITLE=Jimmy Hamilton - Jimmy Hamilton and the New York Jazz Quintet
DYEAR=1955
DGENRE=Jazz
TTITLE0=Bohemia After Dark
TTITLE1=I Get A Kick Out Of You
TTITLE2=Blues In My Room
TTITLE3=Anything But Love
TTITLE4=Chuckles
TTITLE5=Blues For Clarinet
TTITLE6=Solitude
TTITLE7=What Am I Here For
TTITLE8=Blues For A Princess
TTITLE9=Easy Living
TTITLE10=Rose Room
TTITLE11=Tea For Two
EXTD=YEAR: 1955
EXTT0=
EXTT1=
EXTT2=
EXTT3=
EXTT4=
EXTT5=
EXTT6=
EXTT7=
EXTT8=
EXTT9=
EXTT10=
EXTT11=
PLAYORDER=
